<svg id="visual" viewBox="0 0 960 540" width="960" height="540" xmlns="http://www.w3.org/2000/svg" xmlns:xlink="http://www.w3.org/1999/xlink" version="1.1"><rect x="0" y="0" width="960" height="540" fill="#001220"></rect><path d="M0 390L22.8 381.5C45.7 373 91.3 356 137 359.8C182.7 363.7 228.3 388.3 274 409.3C319.7 430.3 365.3 447.7 411.2 446C457 444.3 503 423.7 548.8 397C594.7 370.3 640.3 337.7 686 327.8C731.7 318 777.3 331 823 343C868.7 355 914.3 366 937.2 371.5L960 377L960 541L937.2 541C914.3 541 868.7 541 823 541C777.3 541 731.7 541 686 541C640.3 541 594.7 541 548.8 541C503 541 457 541 411.2 541C365.3 541 319.7 541 274 541C228.3 541 182.7 541 137 541C91.3 541 45.7 541 22.8 541L0 541Z" fill="#0e0356"></path><path d="M0 369L22.8 375.3C45.7 381.7 91.3 394.3 137 400.2C182.7 406 228.3 405 274 406.7C319.7 408.3 365.3 412.7 411.2 426C457 439.3 503 461.7 548.8 463.8C594.7 466 640.3 448 686 435.7C731.7 423.3 777.3 416.7 823 411.7C868.7 406.7 914.3 403.3 937.2 401.7L960 400L960 541L937.2 541C914.3 541 868.7 541 823 541C777.3 541 731.7 541 686 541C640.3 541 594.7 541 548.8 541C503 541 457 541 411.2 541C365.3 541 319.7 541 274 541C228.3 541 182.7 541 137 541C91.3 541 45.7 541 22.8 541L0 541Z" fill="#642672"></path><path d="M0 467L22.8 462.3C45.7 457.7 91.3 448.3 137 451.2C182.7 454 228.3 469 274 462.7C319.7 456.3 365.3 428.7 411.2 428.2C457 427.7 503 454.3 548.8 470.2C594.7 486 640.3 491 686 487.2C731.7 483.3 777.3 470.7 823 463.7C868.7 456.7 914.3 455.3 937.2 454.7L960 454L960 541L937.2 541C914.3 541 868.7 541 823 541C777.3 541 731.7 541 686 541C640.3 541 594.7 541 548.8 541C503 541 457 541 411.2 541C365.3 541 319.7 541 274 541C228.3 541 182.7 541 137 541C91.3 541 45.7 541 22.8 541L0 541Z" fill="#a5568f"></path><path d="M0 453L22.8 457.8C45.7 462.7 91.3 472.3 137 483.2C182.7 494 228.3 506 274 510.7C319.7 515.3 365.3 512.7 411.2 506.8C457 501 503 492 548.8 491C594.7 490 640.3 497 686 501.3C731.7 505.7 777.3 507.3 823 509.7C868.7 512 914.3 515 937.2 516.5L960 518L960 541L937.2 541C914.3 541 868.7 541 823 541C777.3 541 731.7 541 686 541C640.3 541 594.7 541 548.8 541C503 541 457 541 411.2 541C365.3 541 319.7 541 274 541C228.3 541 182.7 541 137 541C91.3 541 45.7 541 22.8 541L0 541Z" fill="#e08caf"></path></svg>